<mxfile host="app.diagrams.net" agent="Mozilla/5.0 (Windows NT 10.0; Win64; x64) AppleWebKit/537.36 (KHTML, like Gecko) Chrome/138.0.0.0 Safari/537.36" version="28.0.7">
  <diagram name="Page-1" id="zw4yQ0W6nlNdAUxNL55F">
    <mxGraphModel dx="1042" dy="534" grid="1" gridSize="10" guides="1" tooltips="1" connect="1" arrows="1" fold="1" page="1" pageScale="1" pageWidth="850" pageHeight="1100" math="0" shadow="0">
      <root>
        <mxCell id="0" />
        <mxCell id="1" parent="0" />
        <mxCell id="sCixCHRnSdF668S8496--3" value="" style="edgeStyle=orthogonalEdgeStyle;rounded=0;orthogonalLoop=1;jettySize=auto;html=1;" edge="1" parent="1" source="sCixCHRnSdF668S8496--1" target="sCixCHRnSdF668S8496--2">
          <mxGeometry relative="1" as="geometry" />
        </mxCell>
        <mxCell id="sCixCHRnSdF668S8496--1" value="OPENS APP" style="ellipse;whiteSpace=wrap;html=1;fontStyle=1;fillColor=#d5e8d4;strokeColor=#82b366;" vertex="1" parent="1">
          <mxGeometry x="330" y="10" width="120" height="80" as="geometry" />
        </mxCell>
        <mxCell id="sCixCHRnSdF668S8496--5" value="" style="edgeStyle=orthogonalEdgeStyle;rounded=0;orthogonalLoop=1;jettySize=auto;html=1;" edge="1" parent="1" source="sCixCHRnSdF668S8496--2" target="sCixCHRnSdF668S8496--4">
          <mxGeometry relative="1" as="geometry" />
        </mxCell>
        <mxCell id="sCixCHRnSdF668S8496--2" value="VIEW PRODUCTS" style="whiteSpace=wrap;html=1;fontStyle=1;fillColor=#dae8fc;strokeColor=#6c8ebf;" vertex="1" parent="1">
          <mxGeometry x="330" y="180" width="120" height="60" as="geometry" />
        </mxCell>
        <mxCell id="sCixCHRnSdF668S8496--7" value="" style="edgeStyle=orthogonalEdgeStyle;rounded=0;orthogonalLoop=1;jettySize=auto;html=1;" edge="1" parent="1" source="sCixCHRnSdF668S8496--4" target="sCixCHRnSdF668S8496--6">
          <mxGeometry relative="1" as="geometry" />
        </mxCell>
        <mxCell id="sCixCHRnSdF668S8496--9" value="" style="edgeStyle=orthogonalEdgeStyle;rounded=0;orthogonalLoop=1;jettySize=auto;html=1;" edge="1" parent="1" source="sCixCHRnSdF668S8496--4" target="sCixCHRnSdF668S8496--8">
          <mxGeometry relative="1" as="geometry" />
        </mxCell>
        <mxCell id="sCixCHRnSdF668S8496--4" value="MAKES DECISION" style="rhombus;whiteSpace=wrap;html=1;fontStyle=1;fillColor=#fff2cc;strokeColor=#d6b656;" vertex="1" parent="1">
          <mxGeometry x="315" y="300" width="150" height="80" as="geometry" />
        </mxCell>
        <mxCell id="sCixCHRnSdF668S8496--6" value="CLICKS ON&amp;nbsp;&lt;div&gt;BUY NOW&lt;/div&gt;" style="shape=parallelogram;perimeter=parallelogramPerimeter;whiteSpace=wrap;html=1;fixedSize=1;fontStyle=1;fillColor=#e1d5e7;strokeColor=#9673a6;" vertex="1" parent="1">
          <mxGeometry x="330" y="470" width="120" height="60" as="geometry" />
        </mxCell>
        <mxCell id="sCixCHRnSdF668S8496--13" value="" style="edgeStyle=orthogonalEdgeStyle;rounded=0;orthogonalLoop=1;jettySize=auto;html=1;" edge="1" parent="1" source="sCixCHRnSdF668S8496--8" target="sCixCHRnSdF668S8496--12">
          <mxGeometry relative="1" as="geometry" />
        </mxCell>
        <mxCell id="sCixCHRnSdF668S8496--8" value="READS BENEFITS" style="whiteSpace=wrap;html=1;fontStyle=1;fillColor=#dae8fc;strokeColor=#6c8ebf;" vertex="1" parent="1">
          <mxGeometry x="560" y="310" width="120" height="60" as="geometry" />
        </mxCell>
        <mxCell id="sCixCHRnSdF668S8496--15" value="" style="edgeStyle=orthogonalEdgeStyle;rounded=0;orthogonalLoop=1;jettySize=auto;html=1;" edge="1" parent="1" source="sCixCHRnSdF668S8496--12" target="sCixCHRnSdF668S8496--14">
          <mxGeometry relative="1" as="geometry" />
        </mxCell>
        <mxCell id="sCixCHRnSdF668S8496--12" value="AGAIN MAKES&amp;nbsp;&lt;div&gt;DECISION&lt;/div&gt;" style="rhombus;whiteSpace=wrap;html=1;fontStyle=1;fillColor=#fff2cc;strokeColor=#d6b656;" vertex="1" parent="1">
          <mxGeometry x="545" y="440" width="150" height="80" as="geometry" />
        </mxCell>
        <mxCell id="sCixCHRnSdF668S8496--18" value="" style="edgeStyle=orthogonalEdgeStyle;rounded=0;orthogonalLoop=1;jettySize=auto;html=1;" edge="1" parent="1" source="sCixCHRnSdF668S8496--14" target="sCixCHRnSdF668S8496--17">
          <mxGeometry relative="1" as="geometry" />
        </mxCell>
        <mxCell id="sCixCHRnSdF668S8496--14" value="CLICKS ON&amp;nbsp;&lt;div&gt;BUY NOW&lt;/div&gt;" style="shape=parallelogram;perimeter=parallelogramPerimeter;whiteSpace=wrap;html=1;fixedSize=1;fontStyle=1;fillColor=#e1d5e7;strokeColor=#9673a6;" vertex="1" parent="1">
          <mxGeometry x="560" y="610" width="120" height="60" as="geometry" />
        </mxCell>
        <mxCell id="sCixCHRnSdF668S8496--16" value="" style="endArrow=classic;html=1;rounded=0;exitX=0.5;exitY=1;exitDx=0;exitDy=0;" edge="1" parent="1" source="sCixCHRnSdF668S8496--6" target="sCixCHRnSdF668S8496--17">
          <mxGeometry width="50" height="50" relative="1" as="geometry">
            <mxPoint x="400" y="700" as="sourcePoint" />
            <mxPoint x="510" y="800" as="targetPoint" />
            <Array as="points">
              <mxPoint x="390" y="760" />
              <mxPoint x="390" y="800" />
            </Array>
          </mxGeometry>
        </mxCell>
        <mxCell id="sCixCHRnSdF668S8496--17" value="CLOSES APP" style="ellipse;whiteSpace=wrap;html=1;fontStyle=1;fillColor=#d5e8d4;strokeColor=#82b366;" vertex="1" parent="1">
          <mxGeometry x="560" y="760" width="120" height="80" as="geometry" />
        </mxCell>
        <mxCell id="sCixCHRnSdF668S8496--19" value="" style="endArrow=classic;html=1;rounded=0;exitX=1;exitY=0.5;exitDx=0;exitDy=0;entryX=1;entryY=0.5;entryDx=0;entryDy=0;" edge="1" parent="1" source="sCixCHRnSdF668S8496--12" target="sCixCHRnSdF668S8496--17">
          <mxGeometry width="50" height="50" relative="1" as="geometry">
            <mxPoint x="400" y="600" as="sourcePoint" />
            <mxPoint x="810" y="850" as="targetPoint" />
            <Array as="points">
              <mxPoint x="790" y="480" />
              <mxPoint x="790" y="800" />
            </Array>
          </mxGeometry>
        </mxCell>
        <mxCell id="sCixCHRnSdF668S8496--22" value="YES" style="text;strokeColor=none;align=center;fillColor=none;html=1;verticalAlign=middle;whiteSpace=wrap;rounded=0;" vertex="1" parent="1">
          <mxGeometry x="340" y="410" width="60" height="30" as="geometry" />
        </mxCell>
        <mxCell id="sCixCHRnSdF668S8496--23" value="NO" style="text;strokeColor=none;align=center;fillColor=none;html=1;verticalAlign=middle;whiteSpace=wrap;rounded=0;" vertex="1" parent="1">
          <mxGeometry x="700" y="450" width="60" height="30" as="geometry" />
        </mxCell>
        <mxCell id="sCixCHRnSdF668S8496--24" value="" style="endArrow=classic;html=1;rounded=0;exitX=0;exitY=0.5;exitDx=0;exitDy=0;entryX=0;entryY=0.5;entryDx=0;entryDy=0;" edge="1" parent="1" source="sCixCHRnSdF668S8496--4" target="sCixCHRnSdF668S8496--17">
          <mxGeometry width="50" height="50" relative="1" as="geometry">
            <mxPoint x="400" y="500" as="sourcePoint" />
            <mxPoint x="190" y="811.5999755859375" as="targetPoint" />
            <Array as="points">
              <mxPoint x="190" y="340" />
              <mxPoint x="190" y="800" />
            </Array>
          </mxGeometry>
        </mxCell>
        <mxCell id="sCixCHRnSdF668S8496--25" value="NO" style="text;strokeColor=none;align=center;fillColor=none;html=1;verticalAlign=middle;whiteSpace=wrap;rounded=0;" vertex="1" parent="1">
          <mxGeometry x="210" y="310" width="60" height="30" as="geometry" />
        </mxCell>
        <mxCell id="sCixCHRnSdF668S8496--26" value="CONFUSION" style="text;strokeColor=none;align=center;fillColor=none;html=1;verticalAlign=middle;whiteSpace=wrap;rounded=0;" vertex="1" parent="1">
          <mxGeometry x="470" y="310" width="60" height="30" as="geometry" />
        </mxCell>
        <mxCell id="sCixCHRnSdF668S8496--27" value="YES" style="text;strokeColor=none;align=center;fillColor=none;html=1;verticalAlign=middle;whiteSpace=wrap;rounded=0;" vertex="1" parent="1">
          <mxGeometry x="610" y="390" width="60" height="30" as="geometry" />
        </mxCell>
      </root>
    </mxGraphModel>
  </diagram>
</mxfile>
